<?xml version="1.0" standalone="no"?>
<!DOCTYPE svg PUBLIC "-//W3C//DTD SVG 20010904//EN"
 "http://www.w3.org/TR/2001/REC-SVG-20010904/DTD/svg10.dtd">
<svg version="1.0" xmlns="http://www.w3.org/2000/svg"
 width="512.000000pt" height="512.000000pt" viewBox="0 0 512.000000 512.000000"
 preserveAspectRatio="xMidYMid meet">
<metadata>
Created by potrace 1.15, written by Peter Selinger 2001-2017
</metadata>
<g transform="translate(0.000000,512.000000) scale(0.100000,-0.100000)"
fill="#000000" stroke="none">
<path d="M2110 4822 c-151 -40 -245 -135 -285 -289 -12 -44 -15 -121 -15 -335
l0 -278 -537 0 c-306 0 -568 -5 -607 -10 -216 -32 -388 -207 -416 -426 -7 -52
-10 -537 -8 -1439 l3 -1360 21 -62 c56 -162 188 -286 351 -328 86 -23 3800
-23 3886 0 82 21 146 56 210 115 66 61 108 123 139 210 l23 65 3 1360 c2 899
-1 1387 -7 1440 -28 213 -201 392 -411 425 -38 6 -291 10 -607 10 l-542 0 -3
288 -3 288 -32 65 c-63 127 -205 229 -368 264 -108 23 -705 20 -795 -3z m720
-283 c75 -12 134 -42 164 -82 20 -27 21 -43 24 -283 l3 -254 -461 0 -460 0 0
243 c0 133 5 258 10 278 12 44 54 84 100 97 47 14 539 14 620 1z m1623 -933
c18 -7 47 -28 65 -46 64 -64 62 -40 62 -726 l0 -624 -774 0 -773 0 -6 70 c-7
85 -33 146 -84 197 -75 75 -88 78 -363 81 -275 3 -302 -1 -376 -57 -66 -49
-103 -123 -111 -219 l-6 -72 -468 0 c-456 0 -470 -1 -489 -20 -13 -13 -20 -33
-20 -59 0 -73 -16 -71 511 -71 l467 0 4 -102 c6 -156 51 -237 163 -296 l50
-27 255 0 255 0 50 27 c112 59 156 139 163 296 l5 102 773 0 774 0 0 -660 c0
-574 -2 -666 -15 -698 -20 -47 -50 -78 -100 -105 l-40 -22 -1865 0 -1865 0
-40 22 c-50 27 -80 58 -100 105 -13 32 -15 124 -15 698 l0 660 125 0 c112 0
127 2 145 20 27 27 26 77 -2 107 -20 22 -29 23 -145 23 l-123 0 0 625 c0 686
-2 661 61 724 64 65 -79 60 1957 61 1547 0 1868 -2 1895 -14z m-1649 -1215
c63 -42 66 -54 66 -291 0 -196 -2 -218 -20 -247 -39 -65 -50 -68 -291 -68
-206 0 -219 1 -246 21 -15 12 -37 36 -48 55 -18 31 -20 52 -20 239 0 191 1
207 21 238 44 69 55 72 294 72 194 0 218 -2 244 -19z"/>
</g>
</svg>
